<svg xmlns="http://www.w3.org/2000/svg" xmlns:xlink="http://www.w3.org/1999/xlink" viewBox="0 0 500 500"><defs><style>.cls-1{font-size:36px;fill:none;font-family:Arial-BoldMT, Arial;font-weight:700;}.cls-2{letter-spacing:-0.04em;}.cls-3,.cls-6{fill:#fff;}.cls-4{clip-path:url(#clip-path);}.cls-5{fill:url(#Névtelen_színátmenet_7);}.cls-6{stroke:#fff;stroke-miterlimit:10;stroke-width:20px;}.cls-7{fill:url(#Névtelen_színátmenet_7-2);}.cls-8{fill:url(#Névtelen_színátmenet_7-3);}.cls-9{fill:url(#Névtelen_színátmenet_7-4);}.cls-10{fill:url(#Névtelen_színátmenet_7-5);}.cls-11{fill:url(#Névtelen_színátmenet_7-6);}.cls-12{fill:url(#Névtelen_színátmenet_7-7);}.cls-13{fill:url(#Névtelen_színátmenet_7-8);}</style><clipPath id="clip-path"><text class="cls-1" transform="translate(-118.97 139.26) rotate(-25)">API<tspan class="cls-2" x="60.01" y="0"> </tspan><tspan x="68.68" y="0">API</tspan><tspan class="cls-2" x="128.69" y="0"> </tspan><tspan x="137.36" y="0">API</tspan><tspan class="cls-2" x="197.37" y="0"> </tspan><tspan x="206.03" y="0">API</tspan><tspan class="cls-2" x="266.04" y="0"> </tspan><tspan x="274.71" y="0">API</tspan><tspan class="cls-2" x="334.72" y="0"> </tspan><tspan x="343.39" y="0">API</tspan><tspan class="cls-2" x="403.4" y="0"> </tspan><tspan x="412.07" y="0">API</tspan><tspan class="cls-2" x="472.08" y="0"> </tspan><tspan x="480.74" y="0">API</tspan><tspan class="cls-2" x="540.76" y="0"> </tspan><tspan x="549.42" y="0">API</tspan><tspan x="0" y="43.2">API</tspan><tspan class="cls-2" x="60.01" y="43.2"> </tspan><tspan x="68.68" y="43.2">API</tspan><tspan class="cls-2" x="128.69" y="43.2"> </tspan><tspan x="137.36" y="43.2">API</tspan><tspan class="cls-2" x="197.37" y="43.2"> </tspan><tspan x="206.03" y="43.2">API</tspan><tspan class="cls-2" x="266.04" y="43.2"> </tspan><tspan x="274.71" y="43.2">API</tspan><tspan class="cls-2" x="334.72" y="43.2"> </tspan><tspan x="343.39" y="43.2">API</tspan><tspan class="cls-2" x="403.4" y="43.2"> </tspan><tspan x="412.07" y="43.2">API</tspan><tspan class="cls-2" x="472.08" y="43.2"> </tspan><tspan x="480.74" y="43.2">API</tspan><tspan class="cls-2" x="540.76" y="43.2"> </tspan><tspan x="549.42" y="43.2">API</tspan><tspan x="0" y="86.4">API</tspan><tspan class="cls-2" x="60.01" y="86.4"> </tspan><tspan x="68.68" y="86.4">API</tspan><tspan class="cls-2" x="128.69" y="86.4"> </tspan><tspan x="137.36" y="86.4">API</tspan><tspan class="cls-2" x="197.37" y="86.4"> </tspan><tspan x="206.03" y="86.4">API</tspan><tspan class="cls-2" x="266.04" y="86.4"> </tspan><tspan x="274.71" y="86.4">API</tspan><tspan class="cls-2" x="334.72" y="86.4"> </tspan><tspan x="343.39" y="86.4">API</tspan><tspan class="cls-2" x="403.4" y="86.4"> </tspan><tspan x="412.07" y="86.4">API</tspan><tspan class="cls-2" x="472.08" y="86.4"> </tspan><tspan x="480.74" y="86.4">API</tspan><tspan class="cls-2" x="540.76" y="86.4"> </tspan><tspan x="549.42" y="86.4">API</tspan><tspan x="0" y="129.6">API</tspan><tspan class="cls-2" x="60.01" y="129.6"> </tspan><tspan x="68.68" y="129.6">API</tspan><tspan class="cls-2" x="128.69" y="129.6"> </tspan><tspan x="137.36" y="129.6">API</tspan><tspan class="cls-2" x="197.37" y="129.6"> </tspan><tspan x="206.03" y="129.6">API</tspan><tspan class="cls-2" x="266.04" y="129.6"> </tspan><tspan x="274.71" y="129.6">API</tspan><tspan class="cls-2" x="334.72" y="129.6"> </tspan><tspan x="343.39" y="129.6">API</tspan><tspan class="cls-2" x="403.4" y="129.6"> </tspan><tspan x="412.07" y="129.6">API</tspan><tspan class="cls-2" x="472.08" y="129.6"> </tspan><tspan x="480.74" y="129.6">API</tspan><tspan class="cls-2" x="540.76" y="129.6"> </tspan><tspan x="549.42" y="129.6">API</tspan><tspan x="0" y="172.8">API</tspan><tspan class="cls-2" x="60.01" y="172.8"> </tspan><tspan x="68.68" y="172.8">API</tspan><tspan class="cls-2" x="128.69" y="172.8"> </tspan><tspan x="137.36" y="172.8">API</tspan><tspan class="cls-2" x="197.37" y="172.8"> </tspan><tspan x="206.03" y="172.8">API</tspan><tspan class="cls-2" x="266.04" y="172.8"> </tspan><tspan x="274.71" y="172.8">API</tspan><tspan class="cls-2" x="334.72" y="172.8"> </tspan><tspan x="343.39" y="172.8">API</tspan><tspan class="cls-2" x="403.4" y="172.8"> </tspan><tspan x="412.07" y="172.8">API</tspan><tspan class="cls-2" x="472.08" y="172.8"> </tspan><tspan x="480.74" y="172.8">API</tspan><tspan class="cls-2" x="540.76" y="172.8"> </tspan><tspan x="549.42" y="172.8">API</tspan><tspan x="0" y="216">API</tspan><tspan class="cls-2" x="60.01" y="216"> </tspan><tspan x="68.68" y="216">API</tspan><tspan class="cls-2" x="128.69" y="216"> </tspan><tspan x="137.36" y="216">API</tspan><tspan class="cls-2" x="197.37" y="216"> </tspan><tspan x="206.03" y="216">API</tspan><tspan class="cls-2" x="266.04" y="216"> </tspan><tspan x="274.71" y="216">API</tspan><tspan class="cls-2" x="334.72" y="216"> </tspan><tspan x="343.39" y="216">API</tspan><tspan class="cls-2" x="403.4" y="216"> </tspan><tspan x="412.07" y="216">API</tspan><tspan class="cls-2" x="472.08" y="216"> </tspan><tspan x="480.74" y="216">API</tspan><tspan class="cls-2" x="540.76" y="216"> </tspan><tspan x="549.42" y="216">API</tspan><tspan x="0" y="259.2">API</tspan><tspan class="cls-2" x="60.01" y="259.2"> </tspan><tspan x="68.68" y="259.2">API</tspan><tspan class="cls-2" x="128.69" y="259.2"> </tspan><tspan x="137.36" y="259.2">API</tspan><tspan class="cls-2" x="197.37" y="259.2"> </tspan><tspan x="206.03" y="259.2">API</tspan><tspan class="cls-2" x="266.04" y="259.2"> </tspan><tspan x="274.71" y="259.2">API</tspan><tspan class="cls-2" x="334.72" y="259.2"> </tspan><tspan x="343.39" y="259.2">API</tspan><tspan class="cls-2" x="403.4" y="259.2"> </tspan><tspan x="412.07" y="259.2">API</tspan><tspan class="cls-2" x="472.08" y="259.2"> </tspan><tspan x="480.74" y="259.2">API</tspan><tspan class="cls-2" x="540.76" y="259.2"> </tspan><tspan x="549.42" y="259.2">API</tspan><tspan x="0" y="302.4">API</tspan><tspan class="cls-2" x="60.01" y="302.4"> </tspan><tspan x="68.68" y="302.4">API</tspan><tspan class="cls-2" x="128.69" y="302.4"> </tspan><tspan x="137.36" y="302.4">API</tspan><tspan class="cls-2" x="197.37" y="302.4"> </tspan><tspan x="206.03" y="302.4">API</tspan><tspan class="cls-2" x="266.04" y="302.4"> </tspan><tspan x="274.71" y="302.4">API</tspan><tspan class="cls-2" x="334.72" y="302.4"> </tspan><tspan x="343.39" y="302.4">API</tspan><tspan class="cls-2" x="403.4" y="302.4"> </tspan><tspan x="412.07" y="302.4">API</tspan><tspan class="cls-2" x="472.08" y="302.4"> </tspan><tspan x="480.74" y="302.4">API</tspan><tspan class="cls-2" x="540.76" y="302.4"> </tspan><tspan x="549.42" y="302.4">API</tspan><tspan x="0" y="345.6">API</tspan><tspan class="cls-2" x="60.01" y="345.6"> </tspan><tspan x="68.68" y="345.6">API</tspan><tspan class="cls-2" x="128.69" y="345.6"> </tspan><tspan x="137.36" y="345.6">API</tspan><tspan class="cls-2" x="197.37" y="345.6"> </tspan><tspan x="206.03" y="345.6">API</tspan><tspan class="cls-2" x="266.04" y="345.6"> </tspan><tspan x="274.71" y="345.6">API</tspan><tspan class="cls-2" x="334.72" y="345.6"> </tspan><tspan x="343.39" y="345.6">API</tspan><tspan class="cls-2" x="403.4" y="345.6"> </tspan><tspan x="412.07" y="345.6">API</tspan><tspan class="cls-2" x="472.08" y="345.6"> </tspan><tspan x="480.74" y="345.6">API</tspan><tspan class="cls-2" x="540.76" y="345.6"> </tspan><tspan x="549.42" y="345.6">API</tspan><tspan x="0" y="388.8">API</tspan><tspan class="cls-2" x="60.01" y="388.8"> </tspan><tspan x="68.68" y="388.8">API</tspan><tspan class="cls-2" x="128.69" y="388.8"> </tspan><tspan x="137.36" y="388.8">API</tspan><tspan class="cls-2" x="197.37" y="388.8"> </tspan><tspan x="206.03" y="388.8">API</tspan><tspan class="cls-2" x="266.04" y="388.8"> </tspan><tspan x="274.71" y="388.8">API</tspan><tspan class="cls-2" x="334.72" y="388.8"> </tspan><tspan x="343.39" y="388.8">API</tspan><tspan class="cls-2" x="403.4" y="388.8"> </tspan><tspan x="412.07" y="388.8">API</tspan><tspan class="cls-2" x="472.08" y="388.8"> </tspan><tspan x="480.74" y="388.8">API</tspan><tspan class="cls-2" x="540.76" y="388.8"> </tspan><tspan x="549.42" y="388.8">API</tspan><tspan x="0" y="432">API</tspan><tspan class="cls-2" x="60.01" y="432"> </tspan><tspan x="68.68" y="432">API</tspan><tspan class="cls-2" x="128.69" y="432"> </tspan><tspan x="137.36" y="432">API</tspan><tspan class="cls-2" x="197.37" y="432"> </tspan><tspan x="206.03" y="432">API</tspan><tspan class="cls-2" x="266.04" y="432"> </tspan><tspan x="274.71" y="432">API</tspan><tspan class="cls-2" x="334.72" y="432"> </tspan><tspan x="343.39" y="432">API</tspan><tspan class="cls-2" x="403.4" y="432"> </tspan><tspan x="412.07" y="432">API</tspan><tspan class="cls-2" x="472.08" y="432"> </tspan><tspan x="480.74" y="432">API</tspan><tspan class="cls-2" x="540.76" y="432"> </tspan><tspan x="549.42" y="432">API</tspan><tspan x="0" y="475.2">API</tspan><tspan class="cls-2" x="60.01" y="475.2"> </tspan><tspan x="68.68" y="475.2">API</tspan><tspan class="cls-2" x="128.69" y="475.2"> </tspan><tspan x="137.36" y="475.2">API</tspan><tspan class="cls-2" x="197.37" y="475.2"> </tspan><tspan x="206.03" y="475.2">API</tspan><tspan class="cls-2" x="266.04" y="475.2"> </tspan><tspan x="274.71" y="475.2">API</tspan><tspan class="cls-2" x="334.72" y="475.2"> </tspan><tspan x="343.39" y="475.2">API</tspan><tspan class="cls-2" x="403.4" y="475.2"> </tspan><tspan x="412.07" y="475.2">API</tspan><tspan class="cls-2" x="472.08" y="475.2"> </tspan><tspan x="480.74" y="475.2">API</tspan><tspan class="cls-2" x="540.76" y="475.2"> </tspan><tspan x="549.42" y="475.2">API</tspan><tspan x="0" y="518.4">API</tspan><tspan class="cls-2" x="60.01" y="518.4"> </tspan><tspan x="68.68" y="518.4">API</tspan><tspan class="cls-2" x="128.69" y="518.4"> </tspan><tspan x="137.36" y="518.4">API</tspan><tspan class="cls-2" x="197.37" y="518.4"> </tspan><tspan x="206.03" y="518.4">API</tspan><tspan class="cls-2" x="266.04" y="518.4"> </tspan><tspan x="274.71" y="518.4">API</tspan><tspan class="cls-2" x="334.72" y="518.4"> </tspan><tspan x="343.39" y="518.4">API</tspan><tspan class="cls-2" x="403.4" y="518.4"> </tspan><tspan x="412.07" y="518.4">API</tspan><tspan class="cls-2" x="472.08" y="518.4"> </tspan><tspan x="480.74" y="518.4">API</tspan><tspan class="cls-2" x="540.76" y="518.4"> </tspan><tspan x="549.42" y="518.4">API</tspan><tspan x="0" y="561.6">API</tspan><tspan class="cls-2" x="60.01" y="561.6"> </tspan><tspan x="68.68" y="561.6">API</tspan><tspan class="cls-2" x="128.69" y="561.6"> </tspan><tspan x="137.36" y="561.6">API</tspan><tspan class="cls-2" x="197.37" y="561.6"> </tspan><tspan x="206.03" y="561.6">API</tspan><tspan class="cls-2" x="266.04" y="561.6"> </tspan><tspan x="274.71" y="561.6">API</tspan><tspan class="cls-2" x="334.72" y="561.6"> </tspan><tspan x="343.39" y="561.6">API</tspan><tspan class="cls-2" x="403.4" y="561.6"> </tspan><tspan x="412.07" y="561.6">API</tspan><tspan class="cls-2" x="472.08" y="561.6"> </tspan><tspan x="480.74" y="561.6">API</tspan><tspan class="cls-2" x="540.76" y="561.6"> </tspan><tspan x="549.42" y="561.6">API</tspan></text></clipPath><linearGradient id="Névtelen_színátmenet_7" y1="250" x2="500" y2="250" gradientUnits="userSpaceOnUse"><stop offset="0" stop-color="#910a01"/><stop offset="0.25" stop-color="#a3150b"/><stop offset="0.75" stop-color="#d13125"/><stop offset="1" stop-color="#eb4034"/></linearGradient><linearGradient id="Névtelen_színátmenet_7-2" x1="436.5" y1="252" x2="63.5" y2="252" gradientTransform="matrix(1, 0, 0, -1, 0, 502)" xlink:href="#Névtelen_színátmenet_7"/><linearGradient id="Névtelen_színátmenet_7-3" x1="385.88" y1="323.66" x2="287.46" y2="323.66" gradientTransform="matrix(1, 0, 0, -1, 0, 502)" xlink:href="#Névtelen_színátmenet_7"/><linearGradient id="Névtelen_színátmenet_7-4" x1="215.8" y1="323.63" x2="117.39" y2="323.63" gradientTransform="matrix(1, 0, 0, -1, 0, 502)" xlink:href="#Névtelen_színátmenet_7"/><linearGradient id="Névtelen_színátmenet_7-5" x1="385.88" y1="177.55" x2="287.46" y2="177.55" gradientTransform="matrix(1, 0, 0, -1, 0, 502)" xlink:href="#Névtelen_színátmenet_7"/><linearGradient id="Névtelen_színátmenet_7-6" x1="215.8" y1="249.43" x2="117.39" y2="249.43" gradientTransform="matrix(1, 0, 0, -1, 0, 502)" xlink:href="#Névtelen_színátmenet_7"/><linearGradient id="Névtelen_színátmenet_7-7" x1="385.88" y1="249.55" x2="287.46" y2="249.55" gradientTransform="matrix(1, 0, 0, -1, 0, 502)" xlink:href="#Névtelen_színátmenet_7"/><linearGradient id="Névtelen_színátmenet_7-8" x1="215.8" y1="177.48" x2="117.39" y2="177.48" gradientTransform="matrix(1, 0, 0, -1, 0, 502)" xlink:href="#Névtelen_színátmenet_7"/></defs><g id="white_bg" data-name="white bg"><path class="cls-3" d="M109,0H388.92A111.08,111.08,0,0,1,500,111.08V391A109,109,0,0,1,391,500H109A109,109,0,0,1,0,391V109A109,109,0,0,1,109,0Z"/></g><g id="lite"><g class="cls-4"><path class="cls-5" d="M109,0H388.92A111.08,111.08,0,0,1,500,111.08V391A109,109,0,0,1,391,500H109A109,109,0,0,1,0,391V109A109,109,0,0,1,109,0Z"/></g></g><g id="logo"><path class="cls-6" d="M427.7,122.1a25.93,25.93,0,0,0-25.9-25.7h-1L249.9,132,99.1,98.7h-.9a25.93,25.93,0,0,0-25.9,25.7L63.5,344.3v.3a25.91,25.91,0,0,0,24.9,25.9l154.9,32.8.8.1a7.08,7.08,0,0,0,1.4.1,13.45,13.45,0,0,0,3.5-.5,11.93,11.93,0,0,0,3.7.6,7.08,7.08,0,0,0,1.4-.1l.4-.1L411.6,368c13.6-.6,24.9-12.7,24.9-26.9v-.2Z"/><path class="cls-7" d="M427.7,122.1a25.93,25.93,0,0,0-25.9-25.7h-1L249.9,132,99.1,98.7h-.9a25.93,25.93,0,0,0-25.9,25.7L63.5,344.3v.3a25.91,25.91,0,0,0,24.9,25.9l154.9,32.8.8.1a7.08,7.08,0,0,0,1.4.1,13.45,13.45,0,0,0,3.5-.5,11.93,11.93,0,0,0,3.7.6,7.08,7.08,0,0,0,1.4-.1l.4-.1L411.6,368c13.6-.6,24.9-12.7,24.9-26.9v-.2ZM89.4,353.6a8.9,8.9,0,0,1-8.9-8.8l8.8-219.9v-.3a9,9,0,0,1,8.1-8.9l144.1,31.9V385.7L90.3,353.6Zm321.2-2.3h-.9l-151.2,34V147.5l144.1-34a8.92,8.92,0,0,1,8.1,8.9v.2l8.8,219.1C419.4,346.7,415.2,351.3,410.6,351.3Z"/><path class="cls-8" d="M377.1,160.5l-83.7,20a7.33,7.33,0,0,0-6.1,7.4V189a7.49,7.49,0,0,0,8.8,7.2l83.6-21.1a7.47,7.47,0,0,0,6-7.1A7.19,7.19,0,0,0,377.1,160.5Z"/><path class="cls-9" d="M209.8,180.5l-83.7-20a7.42,7.42,0,0,0-2.7,14.6L207,196.2a7.39,7.39,0,0,0,8.8-7.2v-1.1A7.24,7.24,0,0,0,209.8,180.5Z"/><path class="cls-10" d="M377.1,306.6l-83.7,20a7.33,7.33,0,0,0-6.1,7.4v1.1a7.49,7.49,0,0,0,8.8,7.2l83.6-21.1a7.47,7.47,0,0,0,6-7.1h0A7.28,7.28,0,0,0,377.1,306.6Z"/><path class="cls-11" d="M209.8,254.7l-83.7-20a7.42,7.42,0,0,0-2.7,14.6L207,270.4a7.39,7.39,0,0,0,8.8-7.2v-1.1A7.24,7.24,0,0,0,209.8,254.7Z"/><path class="cls-12" d="M377.1,234.6l-83.7,20a7.33,7.33,0,0,0-6.1,7.4v1.1a7.49,7.49,0,0,0,8.8,7.2l83.6-21.1a7.47,7.47,0,0,0,6-7.1A7.28,7.28,0,0,0,377.1,234.6Z"/><path class="cls-13" d="M209.8,327.6l-83.7-20a7.42,7.42,0,0,0-2.7,14.6L207,341.3c4.5.9,8.7-.5,8.8-5.2V335A7.24,7.24,0,0,0,209.8,327.6Z"/></g></svg>