<?xml version="1.0" encoding="UTF-8" standalone="no"?>
<svg
   xmlns:dc="http://purl.org/dc/elements/1.1/"
   xmlns:cc="http://creativecommons.org/ns#"
   xmlns:rdf="http://www.w3.org/1999/02/22-rdf-syntax-ns#"
   xmlns:svg="http://www.w3.org/2000/svg"
   xmlns="http://www.w3.org/2000/svg"
   xmlns:xlink="http://www.w3.org/1999/xlink"
   xmlns:sodipodi="http://sodipodi.sourceforge.net/DTD/sodipodi-0.dtd"
   xmlns:inkscape="http://www.inkscape.org/namespaces/inkscape"
   version="1.1"
   x="0px"
   y="0px"
   viewBox="0 0 500 500"
   style="enable-background:new 0 0 500 500;"
   xml:space="preserve"
   id="svg20332"
   sodipodi:docname="formula.svg"
   inkscape:version="1.0.1 (3bc2e813f5, 2020-09-07)"><metadata
   id="metadata20338"><rdf:RDF><cc:Work
       rdf:about=""><dc:format>image/svg+xml</dc:format><dc:type
         rdf:resource="http://purl.org/dc/dcmitype/StillImage" /></cc:Work></rdf:RDF></metadata><defs
   id="defs20336"><linearGradient
     inkscape:collect="always"
     xlink:href="#SVGID_2_"
     id="linearGradient21831"
     x1="4.4439421"
     y1="203.59361"
     x2="226.7476"
     y2="203.59361"
     gradientUnits="userSpaceOnUse" /><radialGradient
     inkscape:collect="always"
     xlink:href="#SVGID_1_"
     id="radialGradient21839"
     cx="115.59578"
     cy="203.59361"
     fx="115.59578"
     fy="203.59361"
     r="111.15196"
     gradientTransform="matrix(1,0,0,0.99540184,0,0.936157)"
     gradientUnits="userSpaceOnUse" /><linearGradient
     inkscape:collect="always"
     xlink:href="#SVGID_1_"
     id="linearGradient21843"
     x1="4.4438133"
     y1="203.59361"
     x2="226.74774"
     y2="203.59361"
     gradientUnits="userSpaceOnUse" /></defs><sodipodi:namedview
   pagecolor="#ffffff"
   bordercolor="#666666"
   borderopacity="1"
   objecttolerance="10"
   gridtolerance="10"
   guidetolerance="10"
   inkscape:pageopacity="0"
   inkscape:pageshadow="2"
   inkscape:window-width="1858"
   inkscape:window-height="1057"
   id="namedview20334"
   showgrid="false"
   inkscape:zoom="1.4142136"
   inkscape:cx="118.75282"
   inkscape:cy="276.92869"
   inkscape:window-x="718"
   inkscape:window-y="88"
   inkscape:window-maximized="1"
   inkscape:current-layer="svg20332"
   inkscape:document-rotation="0" />
<style
   type="text/css"
   id="style20307">
	.st0{display:none;}
	.st1{display:inline;fill:#808080;}
	.st2{fill:#FFFFFF;}
	.st3{fill:url(#SVGID_1_);}
	.st4{fill:url(#SVGID_2_);}
</style>
<g
   id="background"
   class="st0">
	<rect
   x="0.5"
   y="0.5"
   class="st1"
   width="500"
   height="500"
   id="rect20309" />
</g>
<g
   id="white_bg">
	<path
   class="st2"
   d="M390.99,500H109.01C48.81,500,0,451.19,0,390.99V109.01C0,48.81,48.81,0,109.01,0h279.91   C450.27,0,500,49.73,500,111.08v279.91C500,451.19,451.19,500,390.99,500z"
   id="path20312" />
</g>
<g
   id="logo"
   style="stroke-width:1;stroke-miterlimit:0;stroke-dasharray:none;opacity:0">
	<g
   id="g20329"
   style="stroke-width:1;stroke-miterlimit:0;stroke-dasharray:none">
		<linearGradient
   id="SVGID_1_"
   gradientUnits="userSpaceOnUse"
   x1="323.0903"
   y1="416.9173"
   x2="176.9079"
   y2="270.7348">
			<stop
   offset="0"
   style="stop-color:#13547A"
   id="stop20315" />
			<stop
   offset="1"
   style="stop-color:#62A39C"
   id="stop20317" />
		</linearGradient>
		<path
   class="st3"
   d="M192.33,255.84l-48.86,79.85c-0.77,1.26-1.39,2.42-1.9,3.55c-7.65,17.02-5.98,35.29,4.26,46.55    c1.7,1.87,3.63,3.53,5.74,4.93c4.99,3.33,10.96,5.09,17.24,5.09h162.38c6.27,0,12.23-1.76,17.23-5.09    c2.11-1.41,4.05-3.07,5.75-4.94c10.24-11.26,11.91-29.53,4.25-46.57c-0.51-1.13-1.13-2.28-1.89-3.53l-48.86-79.85    c-2.37-3.88-6.44-6.2-10.86-6.2h-93.61C198.77,249.64,194.71,251.96,192.33,255.84z M295.58,265.28l48.21,78.79    c0.42,0.68,0.74,1.27,0.97,1.78c4.95,11,4.32,22.74-1.56,29.21c-0.86,0.94-1.84,1.79-2.92,2.5c-2.57,1.71-5.71,2.61-9.09,2.61    H168.81c-3.38,0-6.52-0.9-9.08-2.61c-1.08-0.72-2.07-1.56-2.92-2.5c-5.88-6.47-6.51-18.21-1.57-29.21    c0.23-0.52,0.54-1.09,0.97-1.78l48.21-78.79H295.58z"
   id="path20320"
   style="stroke-width:1;stroke-miterlimit:0;stroke-dasharray:none" />
		<linearGradient
   id="SVGID_2_"
   gradientUnits="userSpaceOnUse"
   x1="385.4556"
   y1="421.9661"
   x2="114.6079"
   y2="151.1184">
			<stop
   offset="0"
   style="stop-color:#13547A"
   id="stop20322" />
			<stop
   offset="1"
   style="stop-color:#62A39C"
   id="stop20324" />
		</linearGradient>
		<path
   class="st4"
   d="M401.02,349.36c-0.67-1.48-1.49-3-2.48-4.62l-55.25-91.01l-39.98-66.23c-1.77-2.93-2.69-6.32-2.66-9.8    l0.77-87.05h7.97V75h-16.84v0.07l-6.08-0.06l-0.91,102.53c-0.06,6.46,1.66,12.77,4.96,18.24l24.81,41.1l-0.06,0.04l15.15,24.95    l49.04,81.23l0.2-0.13l6.14,10.11c0.66,1.08,1.18,2.03,1.57,2.89c7.57,16.82,6.45,34.95-2.78,45.1c-1.39,1.53-2.99,2.9-4.74,4.06    c-4.15,2.76-9.2,4.22-14.6,4.22H134.76c-5.41,0-10.46-1.46-14.6-4.22c-1.75-1.17-3.35-2.53-4.74-4.06    c-9.23-10.15-10.35-28.28-2.79-45.09c0.39-0.87,0.89-1.79,1.58-2.92l6.12-10.08l0.2,0.13l49.39-81.81l14.8-24.37l-0.06-0.04    l24.81-41.1c3.09-5.12,4.77-10.99,4.93-17.03h31.74v-15.64H214.3l-0.17-18.78h18.89v-15.64H214l-0.16-17.49h33.6V95.56H213.7    l-0.18-20.55l-5.95,0.06V75h-16.84v15.64h7.85l0.77,87.05c0.03,3.48-0.89,6.87-2.66,9.8l-39.6,65.61l-55.61,91.61    c-1.02,1.66-1.84,3.19-2.5,4.66c-10.31,22.93-8.16,47.43,5.48,62.44c2.24,2.45,4.78,4.64,7.56,6.49c6.58,4.38,14.45,6.7,22.76,6.7    h230.47c8.29,0,16.16-2.32,22.75-6.7c2.78-1.85,5.33-4.04,7.56-6.49C409.19,396.81,411.34,372.3,401.02,349.36z"
   id="path20327"
   style="stroke-width:1;stroke-miterlimit:0;stroke-dasharray:none" />
	</g>
</g>
<path
   sodipodi:type="star"
   style="fill:none;stroke:url(#linearGradient21843);stroke-width:17.23305787;stroke-linecap:round;stroke-linejoin:round;stroke-miterlimit:0;stroke-dasharray:none;fill-opacity:1"
   id="path20342"
   sodipodi:sides="7"
   sodipodi:cx="113.48315"
   sodipodi:cy="206.74158"
   sodipodi:r1="105.60005"
   sodipodi:r2="95.142357"
   sodipodi:arg1="1.929567"
   sodipodi:arg2="2.3783659"
   inkscape:flatsided="true"
   inkscape:rounded="0"
   inkscape:randomized="0"
   d="m 76.404493,305.61799 -63.344199,-66.21724 12.276258,-90.81026 78.652438,-47.0213 85.80174,32.17565 28.34056,87.14368 -50.46162,76.49075 z"
   inkscape:transform-center-x="0.80451436"
   inkscape:transform-center-y="-8.3732195"
   transform="matrix(1.6055974,0.14366066,-0.17931597,1.5971809,105.37483,-88.361561)" /></svg>
