<svg width="56.8" height="70" viewBox="0 0 56.8 70" xmlns="http://www.w3.org/2000/svg"><g id="svgGroup" stroke-linecap="round" fill-rule="evenodd" font-size="9pt" stroke="#7f1d1d" stroke-width="0.25mm" fill="#7f1d1d" style="stroke:#7f1d1d;stroke-width:0.25mm;fill:#7f1d1d"><path d="M 56.5 69.1 L 56.5 70 L 0 70 L 0 69.1 L 3.5 68.4 A 5.657 5.657 0 0 0 5.556 67.541 A 5.368 5.368 0 0 0 6.6 66.6 A 4.964 4.964 0 0 0 7.789 63.574 A 6.396 6.396 0 0 0 7.8 63.2 L 7.8 6.8 A 5.535 5.535 0 0 0 7.509 4.977 A 4.839 4.839 0 0 0 6.6 3.4 A 5.422 5.422 0 0 0 3.559 1.613 A 6.671 6.671 0 0 0 3.5 1.6 L 0 0.9 L 0 0 L 27.6 0 L 27.6 0.9 L 23.7 1.7 Q 22 2 20.9 3.4 A 5.125 5.125 0 0 0 19.842 6.042 A 6.687 6.687 0 0 0 19.8 6.8 L 19.8 62.4 A 5.914 5.914 0 0 0 20.163 64.506 A 5.315 5.315 0 0 0 21.4 66.4 A 5.398 5.398 0 0 0 25.246 67.998 A 7.086 7.086 0 0 0 25.4 68 L 42.3 68 A 2.033 2.033 0 0 0 43.534 67.569 Q 43.844 67.339 44.133 66.985 A 5.141 5.141 0 0 0 44.45 66.55 A 12.509 12.509 0 0 0 45.055 65.51 Q 45.645 64.384 46.288 62.749 A 48.117 48.117 0 0 0 46.5 62.2 A 63.476 63.476 0 0 1 47.479 60.006 Q 48.434 57.977 49.263 56.681 A 14.466 14.466 0 0 1 49.55 56.25 A 4.934 4.934 0 0 1 50.656 55.081 A 3.989 3.989 0 0 1 53.1 54.3 A 4.88 4.88 0 0 1 54.674 54.578 Q 55.309 54.794 55.981 55.178 A 10.691 10.691 0 0 1 56.8 55.7 A 1.089 1.089 0 0 0 56.064 56.015 Q 55.447 56.571 54.945 58.108 A 13.114 13.114 0 0 0 54.9 58.25 A 17.729 17.729 0 0 0 54.122 62.758 A 20.425 20.425 0 0 0 54.1 63.7 Q 54.1 65.399 54.401 66.646 A 6.949 6.949 0 0 0 54.7 67.6 A 3.575 3.575 0 0 0 55.037 68.256 Q 55.6 69.1 56.5 69.1 Z" vector-effect="non-scaling-stroke"/></g></svg>