<svg xmlns="http://www.w3.org/2000/svg" xmlns:xlink="http://www.w3.org/1999/xlink" viewBox="0 0 500 500"><defs><style>.cls-1{font-size:36px;fill:none;font-family:Arial-BoldMT, Arial;font-weight:700;}.cls-2{letter-spacing:-0.04em;}.cls-3,.cls-6{fill:#fff;}.cls-4{clip-path:url(#clip-path);}.cls-5{fill:url(#Névtelen_színátmenet_21);}.cls-6{stroke:#fff;stroke-miterlimit:10;stroke-width:20px;}.cls-7{fill:url(#Névtelen_színátmenet_21-2);}.cls-8{fill:url(#Névtelen_színátmenet_21-3);}</style><clipPath id="clip-path"><text class="cls-1" transform="translate(-118.97 139.26) rotate(-25)">API<tspan class="cls-2" x="60.01" y="0"> </tspan><tspan x="68.68" y="0">API</tspan><tspan class="cls-2" x="128.69" y="0"> </tspan><tspan x="137.36" y="0">API</tspan><tspan class="cls-2" x="197.37" y="0"> </tspan><tspan x="206.03" y="0">API</tspan><tspan class="cls-2" x="266.04" y="0"> </tspan><tspan x="274.71" y="0">API</tspan><tspan class="cls-2" x="334.72" y="0"> </tspan><tspan x="343.39" y="0">API</tspan><tspan class="cls-2" x="403.4" y="0"> </tspan><tspan x="412.07" y="0">API</tspan><tspan class="cls-2" x="472.08" y="0"> </tspan><tspan x="480.74" y="0">API</tspan><tspan class="cls-2" x="540.76" y="0"> </tspan><tspan x="549.42" y="0">API</tspan><tspan x="0" y="43.2">API</tspan><tspan class="cls-2" x="60.01" y="43.2"> </tspan><tspan x="68.68" y="43.2">API</tspan><tspan class="cls-2" x="128.69" y="43.2"> </tspan><tspan x="137.36" y="43.2">API</tspan><tspan class="cls-2" x="197.37" y="43.2"> </tspan><tspan x="206.03" y="43.2">API</tspan><tspan class="cls-2" x="266.04" y="43.2"> </tspan><tspan x="274.71" y="43.2">API</tspan><tspan class="cls-2" x="334.72" y="43.2"> </tspan><tspan x="343.39" y="43.2">API</tspan><tspan class="cls-2" x="403.4" y="43.2"> </tspan><tspan x="412.07" y="43.2">API</tspan><tspan class="cls-2" x="472.08" y="43.2"> </tspan><tspan x="480.74" y="43.2">API</tspan><tspan class="cls-2" x="540.76" y="43.2"> </tspan><tspan x="549.42" y="43.2">API</tspan><tspan x="0" y="86.4">API</tspan><tspan class="cls-2" x="60.01" y="86.4"> </tspan><tspan x="68.68" y="86.4">API</tspan><tspan class="cls-2" x="128.69" y="86.4"> </tspan><tspan x="137.36" y="86.4">API</tspan><tspan class="cls-2" x="197.37" y="86.4"> </tspan><tspan x="206.03" y="86.4">API</tspan><tspan class="cls-2" x="266.04" y="86.4"> </tspan><tspan x="274.71" y="86.4">API</tspan><tspan class="cls-2" x="334.72" y="86.4"> </tspan><tspan x="343.39" y="86.4">API</tspan><tspan class="cls-2" x="403.4" y="86.4"> </tspan><tspan x="412.07" y="86.4">API</tspan><tspan class="cls-2" x="472.08" y="86.4"> </tspan><tspan x="480.74" y="86.4">API</tspan><tspan class="cls-2" x="540.76" y="86.4"> </tspan><tspan x="549.42" y="86.4">API</tspan><tspan x="0" y="129.6">API</tspan><tspan class="cls-2" x="60.01" y="129.6"> </tspan><tspan x="68.68" y="129.6">API</tspan><tspan class="cls-2" x="128.69" y="129.6"> </tspan><tspan x="137.36" y="129.6">API</tspan><tspan class="cls-2" x="197.37" y="129.6"> </tspan><tspan x="206.03" y="129.6">API</tspan><tspan class="cls-2" x="266.04" y="129.6"> </tspan><tspan x="274.71" y="129.6">API</tspan><tspan class="cls-2" x="334.72" y="129.6"> </tspan><tspan x="343.39" y="129.6">API</tspan><tspan class="cls-2" x="403.4" y="129.6"> </tspan><tspan x="412.07" y="129.6">API</tspan><tspan class="cls-2" x="472.08" y="129.6"> </tspan><tspan x="480.74" y="129.6">API</tspan><tspan class="cls-2" x="540.76" y="129.6"> </tspan><tspan x="549.42" y="129.6">API</tspan><tspan x="0" y="172.8">API</tspan><tspan class="cls-2" x="60.01" y="172.8"> </tspan><tspan x="68.68" y="172.8">API</tspan><tspan class="cls-2" x="128.69" y="172.8"> </tspan><tspan x="137.36" y="172.8">API</tspan><tspan class="cls-2" x="197.37" y="172.8"> </tspan><tspan x="206.03" y="172.8">API</tspan><tspan class="cls-2" x="266.04" y="172.8"> </tspan><tspan x="274.71" y="172.8">API</tspan><tspan class="cls-2" x="334.72" y="172.8"> </tspan><tspan x="343.39" y="172.8">API</tspan><tspan class="cls-2" x="403.4" y="172.8"> </tspan><tspan x="412.07" y="172.8">API</tspan><tspan class="cls-2" x="472.08" y="172.8"> </tspan><tspan x="480.74" y="172.8">API</tspan><tspan class="cls-2" x="540.76" y="172.8"> </tspan><tspan x="549.42" y="172.8">API</tspan><tspan x="0" y="216">API</tspan><tspan class="cls-2" x="60.01" y="216"> </tspan><tspan x="68.68" y="216">API</tspan><tspan class="cls-2" x="128.69" y="216"> </tspan><tspan x="137.36" y="216">API</tspan><tspan class="cls-2" x="197.37" y="216"> </tspan><tspan x="206.03" y="216">API</tspan><tspan class="cls-2" x="266.04" y="216"> </tspan><tspan x="274.71" y="216">API</tspan><tspan class="cls-2" x="334.72" y="216"> </tspan><tspan x="343.39" y="216">API</tspan><tspan class="cls-2" x="403.4" y="216"> </tspan><tspan x="412.07" y="216">API</tspan><tspan class="cls-2" x="472.08" y="216"> </tspan><tspan x="480.74" y="216">API</tspan><tspan class="cls-2" x="540.76" y="216"> </tspan><tspan x="549.42" y="216">API</tspan><tspan x="0" y="259.2">API</tspan><tspan class="cls-2" x="60.01" y="259.2"> </tspan><tspan x="68.68" y="259.2">API</tspan><tspan class="cls-2" x="128.69" y="259.2"> </tspan><tspan x="137.36" y="259.2">API</tspan><tspan class="cls-2" x="197.37" y="259.2"> </tspan><tspan x="206.03" y="259.2">API</tspan><tspan class="cls-2" x="266.04" y="259.2"> </tspan><tspan x="274.71" y="259.2">API</tspan><tspan class="cls-2" x="334.72" y="259.2"> </tspan><tspan x="343.39" y="259.2">API</tspan><tspan class="cls-2" x="403.4" y="259.2"> </tspan><tspan x="412.07" y="259.2">API</tspan><tspan class="cls-2" x="472.08" y="259.2"> </tspan><tspan x="480.74" y="259.2">API</tspan><tspan class="cls-2" x="540.76" y="259.2"> </tspan><tspan x="549.42" y="259.2">API</tspan><tspan x="0" y="302.4">API</tspan><tspan class="cls-2" x="60.01" y="302.4"> </tspan><tspan x="68.68" y="302.4">API</tspan><tspan class="cls-2" x="128.69" y="302.4"> </tspan><tspan x="137.36" y="302.4">API</tspan><tspan class="cls-2" x="197.37" y="302.4"> </tspan><tspan x="206.03" y="302.4">API</tspan><tspan class="cls-2" x="266.04" y="302.4"> </tspan><tspan x="274.71" y="302.4">API</tspan><tspan class="cls-2" x="334.72" y="302.4"> </tspan><tspan x="343.39" y="302.4">API</tspan><tspan class="cls-2" x="403.4" y="302.4"> </tspan><tspan x="412.07" y="302.4">API</tspan><tspan class="cls-2" x="472.08" y="302.4"> </tspan><tspan x="480.74" y="302.4">API</tspan><tspan class="cls-2" x="540.76" y="302.4"> </tspan><tspan x="549.42" y="302.4">API</tspan><tspan x="0" y="345.6">API</tspan><tspan class="cls-2" x="60.01" y="345.6"> </tspan><tspan x="68.68" y="345.6">API</tspan><tspan class="cls-2" x="128.69" y="345.6"> </tspan><tspan x="137.36" y="345.6">API</tspan><tspan class="cls-2" x="197.37" y="345.6"> </tspan><tspan x="206.03" y="345.6">API</tspan><tspan class="cls-2" x="266.04" y="345.6"> </tspan><tspan x="274.71" y="345.6">API</tspan><tspan class="cls-2" x="334.72" y="345.6"> </tspan><tspan x="343.39" y="345.6">API</tspan><tspan class="cls-2" x="403.4" y="345.6"> </tspan><tspan x="412.07" y="345.6">API</tspan><tspan class="cls-2" x="472.08" y="345.6"> </tspan><tspan x="480.74" y="345.6">API</tspan><tspan class="cls-2" x="540.76" y="345.6"> </tspan><tspan x="549.42" y="345.6">API</tspan><tspan x="0" y="388.8">API</tspan><tspan class="cls-2" x="60.01" y="388.8"> </tspan><tspan x="68.68" y="388.8">API</tspan><tspan class="cls-2" x="128.69" y="388.8"> </tspan><tspan x="137.36" y="388.8">API</tspan><tspan class="cls-2" x="197.37" y="388.8"> </tspan><tspan x="206.03" y="388.8">API</tspan><tspan class="cls-2" x="266.04" y="388.8"> </tspan><tspan x="274.71" y="388.8">API</tspan><tspan class="cls-2" x="334.72" y="388.8"> </tspan><tspan x="343.39" y="388.8">API</tspan><tspan class="cls-2" x="403.4" y="388.8"> </tspan><tspan x="412.07" y="388.8">API</tspan><tspan class="cls-2" x="472.08" y="388.8"> </tspan><tspan x="480.74" y="388.8">API</tspan><tspan class="cls-2" x="540.76" y="388.8"> </tspan><tspan x="549.42" y="388.8">API</tspan><tspan x="0" y="432">API</tspan><tspan class="cls-2" x="60.01" y="432"> </tspan><tspan x="68.68" y="432">API</tspan><tspan class="cls-2" x="128.69" y="432"> </tspan><tspan x="137.36" y="432">API</tspan><tspan class="cls-2" x="197.37" y="432"> </tspan><tspan x="206.03" y="432">API</tspan><tspan class="cls-2" x="266.04" y="432"> </tspan><tspan x="274.71" y="432">API</tspan><tspan class="cls-2" x="334.72" y="432"> </tspan><tspan x="343.39" y="432">API</tspan><tspan class="cls-2" x="403.4" y="432"> </tspan><tspan x="412.07" y="432">API</tspan><tspan class="cls-2" x="472.08" y="432"> </tspan><tspan x="480.74" y="432">API</tspan><tspan class="cls-2" x="540.76" y="432"> </tspan><tspan x="549.42" y="432">API</tspan><tspan x="0" y="475.2">API</tspan><tspan class="cls-2" x="60.01" y="475.2"> </tspan><tspan x="68.68" y="475.2">API</tspan><tspan class="cls-2" x="128.69" y="475.2"> </tspan><tspan x="137.36" y="475.2">API</tspan><tspan class="cls-2" x="197.37" y="475.2"> </tspan><tspan x="206.03" y="475.2">API</tspan><tspan class="cls-2" x="266.04" y="475.2"> </tspan><tspan x="274.71" y="475.2">API</tspan><tspan class="cls-2" x="334.72" y="475.2"> </tspan><tspan x="343.39" y="475.2">API</tspan><tspan class="cls-2" x="403.4" y="475.2"> </tspan><tspan x="412.07" y="475.2">API</tspan><tspan class="cls-2" x="472.08" y="475.2"> </tspan><tspan x="480.74" y="475.2">API</tspan><tspan class="cls-2" x="540.76" y="475.2"> </tspan><tspan x="549.42" y="475.2">API</tspan><tspan x="0" y="518.4">API</tspan><tspan class="cls-2" x="60.01" y="518.4"> </tspan><tspan x="68.68" y="518.4">API</tspan><tspan class="cls-2" x="128.69" y="518.4"> </tspan><tspan x="137.36" y="518.4">API</tspan><tspan class="cls-2" x="197.37" y="518.4"> </tspan><tspan x="206.03" y="518.4">API</tspan><tspan class="cls-2" x="266.04" y="518.4"> </tspan><tspan x="274.71" y="518.4">API</tspan><tspan class="cls-2" x="334.72" y="518.4"> </tspan><tspan x="343.39" y="518.4">API</tspan><tspan class="cls-2" x="403.4" y="518.4"> </tspan><tspan x="412.07" y="518.4">API</tspan><tspan class="cls-2" x="472.08" y="518.4"> </tspan><tspan x="480.74" y="518.4">API</tspan><tspan class="cls-2" x="540.76" y="518.4"> </tspan><tspan x="549.42" y="518.4">API</tspan><tspan x="0" y="561.6">API</tspan><tspan class="cls-2" x="60.01" y="561.6"> </tspan><tspan x="68.68" y="561.6">API</tspan><tspan class="cls-2" x="128.69" y="561.6"> </tspan><tspan x="137.36" y="561.6">API</tspan><tspan class="cls-2" x="197.37" y="561.6"> </tspan><tspan x="206.03" y="561.6">API</tspan><tspan class="cls-2" x="266.04" y="561.6"> </tspan><tspan x="274.71" y="561.6">API</tspan><tspan class="cls-2" x="334.72" y="561.6"> </tspan><tspan x="343.39" y="561.6">API</tspan><tspan class="cls-2" x="403.4" y="561.6"> </tspan><tspan x="412.07" y="561.6">API</tspan><tspan class="cls-2" x="472.08" y="561.6"> </tspan><tspan x="480.74" y="561.6">API</tspan><tspan class="cls-2" x="540.76" y="561.6"> </tspan><tspan x="549.42" y="561.6">API</tspan></text></clipPath><linearGradient id="Névtelen_színátmenet_21" y1="250" x2="500" y2="250" gradientUnits="userSpaceOnUse"><stop offset="0" stop-color="#13547a"/><stop offset="1" stop-color="#62a39c"/></linearGradient><linearGradient id="Névtelen_színátmenet_21-2" x1="323.09" y1="416.92" x2="176.91" y2="270.73" xlink:href="#Névtelen_színátmenet_21"/><linearGradient id="Névtelen_színátmenet_21-3" x1="384.88" y1="422.54" x2="115.19" y2="152.85" xlink:href="#Névtelen_színátmenet_21"/></defs><g id="white_bg" data-name="white bg"><path class="cls-3" d="M109,0H388.92A111.08,111.08,0,0,1,500,111.08V391A109,109,0,0,1,391,500H109A109,109,0,0,1,0,391V109A109,109,0,0,1,109,0Z"/></g><g id="lite"><g class="cls-4"><path class="cls-5" d="M109,0H388.92A111.08,111.08,0,0,1,500,111.08V391A109,109,0,0,1,391,500H109A109,109,0,0,1,0,391V109A109,109,0,0,1,109,0Z"/></g></g><g id="logo"><path class="cls-6" d="M286,75h-.29l-78.14.07V75h-12.9a3.93,3.93,0,0,0-3.94,3.94V86.7a3.93,3.93,0,0,0,3.94,3.94h0a3.92,3.92,0,0,1,3.93,3.9l.75,83.15a18.65,18.65,0,0,1-2.66,9.8L157.08,253.1l-55.61,91.61a40.11,40.11,0,0,0-2.5,4.66c-10.31,22.93-8.16,47.44,5.48,62.44A40.26,40.26,0,0,0,134.76,425H365.24a40.26,40.26,0,0,0,30.31-13.19c13.64-15,15.79-39.51,5.47-62.45a41.59,41.59,0,0,0-2.47-4.63l-55.25-91-40-66.23a18.57,18.57,0,0,1-2.67-9.8l.75-83.15a3.92,3.92,0,0,1,3.93-3.9h.13a3.93,3.93,0,0,0,3.94-3.94V78.94A3.93,3.93,0,0,0,305.46,75H286"/><path class="cls-6" d="M379.66,343"/><path class="cls-6" d="M120.54,343.11"/><path class="cls-7" d="M192.33,255.84,143.47,335.7a32.07,32.07,0,0,0-1.9,3.54c-7.65,17-6,35.29,4.26,46.55a30.57,30.57,0,0,0,23,10H331.19a30.53,30.53,0,0,0,23-10c10.24-11.26,11.91-29.53,4.25-46.57a31.61,31.61,0,0,0-1.89-3.52l-48.86-79.85a12.71,12.71,0,0,0-10.86-6.21H203.19A12.72,12.72,0,0,0,192.33,255.84Zm103.25,9.44,48.21,78.79a15.65,15.65,0,0,1,1,1.78c4.95,11,4.32,22.74-1.56,29.21a15.66,15.66,0,0,1-2.92,2.51,16.33,16.33,0,0,1-9.08,2.6H168.81a16.33,16.33,0,0,1-9.08-2.6,15.66,15.66,0,0,1-2.92-2.51c-5.88-6.47-6.51-18.21-1.57-29.21a17.89,17.89,0,0,1,1-1.78l48.21-78.79Z"/><path class="cls-8" d="M401,349.36a41.59,41.59,0,0,0-2.47-4.63l-55.25-91-40-66.23a18.57,18.57,0,0,1-2.67-9.8l.74-83.14a3.94,3.94,0,0,1,3.94-3.91h.13a3.94,3.94,0,0,0,3.94-3.94V78.94A3.93,3.93,0,0,0,305.46,75h-12.9v.07l-2.14,0a4,4,0,0,0-4,3.91l-.87,98.59a34.61,34.61,0,0,0,5,18.23l24.81,41.1-.07,0,15.15,25,49,81.24.2-.13,6.13,10.11a25.45,25.45,0,0,1,1.57,2.89c7.56,16.82,6.45,34.95-2.78,45.1a25.62,25.62,0,0,1-4.74,4.06,26.23,26.23,0,0,1-14.6,4.22H134.76a26.2,26.2,0,0,1-14.6-4.22,25.62,25.62,0,0,1-4.74-4.06c-9.23-10.15-10.34-28.28-2.78-45.09a26.11,26.11,0,0,1,1.58-2.93L120.34,343l.2.13,49.39-81.81,14.8-24.38-.06,0,24.8-41.09a34.33,34.33,0,0,0,4.68-13.61,3.91,3.91,0,0,1,3.9-3.42H242.2a3.94,3.94,0,0,0,3.94-3.95v-7.75a3.93,3.93,0,0,0-3.94-3.94h-24a4,4,0,0,1-3.94-3.91l-.1-10.9a3.94,3.94,0,0,1,3.94-4h11a3.94,3.94,0,0,0,3.94-3.94v-7.75a4,4,0,0,0-3.94-3.95H217.91a3.94,3.94,0,0,1-3.95-3.9l-.08-9.61a3.94,3.94,0,0,1,3.94-4H243.5a3.93,3.93,0,0,0,3.94-3.94V99.5a3.94,3.94,0,0,0-3.94-3.94H217.61a3.94,3.94,0,0,1-3.94-3.9L213.56,79a3.94,3.94,0,0,0-4-3.91l-2,0V75h-12.9a3.93,3.93,0,0,0-3.94,3.94V86.7a3.94,3.94,0,0,0,3.94,3.94h0a3.94,3.94,0,0,1,3.94,3.91l.74,83.14a18.65,18.65,0,0,1-2.66,9.8L157.08,253.1l-55.61,91.61a40.11,40.11,0,0,0-2.5,4.66c-10.31,22.93-8.16,47.44,5.48,62.44A40.26,40.26,0,0,0,134.76,425H365.24a40.26,40.26,0,0,0,30.31-13.19C409.19,396.81,411.34,372.3,401,349.36Z"/><path class="cls-6" d="M286,75"/></g></svg>